<svg width="321" height="147" viewBox="0 0 321 147" fill="none" xmlns="http://www.w3.org/2000/svg">
<g clip-path="url(#clip0_1697_2)">
<path d="M73.88 0.0400391L69.97 12.53H54.97L37.66 67.86H22.95L40.26 12.53H24.72L28.63 0.0400391H73.88Z" fill="black"/>
<path d="M126.25 0L105.01 67.86H90.3L99.21 39.4H80.18L71.28 67.86H56.56L73.88 12.53L77.79 0.04L77.8 0H92.51L84.08 26.94H103.11L111.53 0H126.25Z" fill="black"/>
<path d="M141.74 12.46L136.98 27.68H159.21L155.3 40.18H133.07L128.31 55.4H154.72L150.82 67.86H109.75L130.97 0.04H132.55L135.49 0H172.06L168.16 12.46H141.74Z" fill="black"/>
<path d="M315.83 10.14H190.23L175.11 58.47H184.6C187.66 52.47 194.43 47.85 200.81 47.85C207.19 47.85 211.09 52.42 210.37 58.47H260.68C260.6 58.65 260.51 58.83 260.44 59.02L260.75 58.47H264.37C267.43 52.47 274.19 47.85 280.57 47.85C286.95 47.85 290.86 52.42 290.14 58.47H301.76L309 35.29L307.78 33.29L315.83 10.14ZM209.89 49.4L220.89 14.24H238.48L227.48 49.4H209.89ZM252.99 49.47H235.4L246.4 14.31H264L252.99 49.47Z" fill="#0091B0"/>
<path d="M231.07 52.0901H213.48L224.48 16.9301H242.07L231.07 52.0901Z" stroke="black" stroke-width="3" stroke-miterlimit="10"/>
<path d="M256.58 52.15H238.99L249.99 16.99H267.58L256.58 52.15Z" stroke="black" stroke-width="3" stroke-miterlimit="10"/>
<path d="M320.84 2.68005L319.27 7.68005L312 30.8601L302.6 61.0001H289.66C290.042 60.187 290.376 59.3522 290.66 58.5001C290.923 57.683 291.123 56.8473 291.26 56.0001H299.2L305 37.3301L305.36 36.2001L308.72 25.5301L314.33 7.66005H187.63L172.51 56.0001H178.32C177.938 56.8131 177.604 57.6479 177.32 58.5001C177.057 59.3171 176.857 60.1528 176.72 61.0001H166L184.2 2.68005H320.84Z" fill="black"/>
<path d="M258.09 56C257.704 56.8113 257.37 57.6463 257.09 58.5C256.837 59.3197 256.636 60.1547 256.49 61H209.9C210.291 60.1907 210.625 59.3554 210.9 58.5C211.161 57.6818 211.365 56.8465 211.51 56H258.09Z" fill="black"/>
<path d="M207.78 56C208.5 50 204.6 45.38 198.22 45.38C191.84 45.38 185.07 50 182 56C181.595 56.8027 181.26 57.6392 181 58.5C180.74 59.3139 180.559 60.1512 180.46 61C179.74 67.05 183.65 71.62 190.03 71.62C196.41 71.62 203.17 67.05 206.23 61C206.631 60.1955 206.966 59.3594 207.23 58.5C207.489 57.6851 207.673 56.8483 207.78 56ZM191.57 66.63C187.09 66.63 184.57 62.99 185.98 58.51C187.39 54.03 192.17 50.39 196.65 50.39C201.13 50.39 203.65 54.03 202.23 58.51C200.81 62.99 196.05 66.63 191.57 66.63Z" fill="black"/>
<path d="M287.55 56C288.27 50 284.36 45.38 277.98 45.38C271.6 45.38 264.84 50 261.78 56C261.375 56.8027 261.04 57.6392 260.78 58.5C260.52 59.3139 260.339 60.1512 260.24 61C259.52 67.05 263.42 71.62 269.8 71.62C276.18 71.62 282.92 67.06 286 61C286.401 60.1955 286.736 59.3594 287 58.5C287.259 57.6851 287.443 56.8483 287.55 56ZM271.33 66.63C266.85 66.63 264.33 62.99 265.75 58.51C267.17 54.03 271.93 50.39 276.41 50.39C280.89 50.39 283.41 54.03 282 58.51C280.59 62.99 275.81 66.63 271.33 66.63Z" fill="black"/>
<path d="M92.68 80.54L72.23 145.89H0L20.45 80.54H34.54L18.59 131.54H33.59L49.59 80.54H63.61L47.61 131.54H62.61L78.61 80.54H92.68Z" fill="black"/>
<path d="M121.13 135.62H98.23L91.93 145.89H76.51L117.93 80.54H135.93L136.45 145.89H121L121.13 135.62ZM121.28 121.62L121.57 97.62L106.84 121.62H121.28Z" fill="black"/>
<path d="M192.54 94.92H176.68L160.68 145.92H146.64L162.64 94.92H146.73L151.23 80.54H197L192.54 94.92Z" fill="black"/>
<path d="M243.21 94.92H227.36L211.36 145.92H197.26L213.21 94.92H197.41L201.9 80.54H247.71L243.21 94.92Z" fill="black"/>
<path d="M228.12 131.89C234.12 132.89 238.66 130.89 242.12 119.94L254.44 80.54H297L276.55 145.89H262.5L278.45 94.89H264L256.35 119.35C249.04 142.69 234.69 147.17 223.74 145.86L228.12 131.89Z" fill="black"/>
</g>
<defs>
<clipPath id="clip0_1697_2">
<rect width="320.84" height="146.1" fill="white"/>
</clipPath>
</defs>
</svg>
